<?xml version="1.0" encoding="UTF-8" standalone="no"?>
<!-- Created with Inkscape (http://www.inkscape.org/) -->

<svg
   width="150"
   height="150"
   viewBox="0 0 39.687499 39.687501"
   version="1.1"
   id="svg4514"
   inkscape:version="1.1.2 (b8e25be833, 2022-02-05)"
   sodipodi:docname="bank.svg"
   inkscape:export-filename="D:\Development\Homeasy\Homeasy\Homeasy\Assets\AccountImages\bank.png"
   inkscape:export-xdpi="400"
   inkscape:export-ydpi="400"
   xmlns:inkscape="http://www.inkscape.org/namespaces/inkscape"
   xmlns:sodipodi="http://sodipodi.sourceforge.net/DTD/sodipodi-0.dtd"
   xmlns="http://www.w3.org/2000/svg"
   xmlns:svg="http://www.w3.org/2000/svg"
   xmlns:rdf="http://www.w3.org/1999/02/22-rdf-syntax-ns#"
   xmlns:cc="http://creativecommons.org/ns#"
   xmlns:dc="http://purl.org/dc/elements/1.1/">
  <defs
     id="defs4508" />
  <sodipodi:namedview
     id="base"
     pagecolor="#ffffff"
     bordercolor="#666666"
     borderopacity="1.0"
     inkscape:pageopacity="0.0"
     inkscape:pageshadow="2"
     inkscape:zoom="3.1474277"
     inkscape:cx="-87.690656"
     inkscape:cy="-38.444092"
     inkscape:document-units="mm"
     inkscape:current-layer="layer1"
     showgrid="false"
     units="px"
     inkscape:pagecheckerboard="true"
     inkscape:window-width="3840"
     inkscape:window-height="2054"
     inkscape:window-x="-11"
     inkscape:window-y="-11"
     inkscape:window-maximized="1" />
  <metadata
     id="metadata4511">
    <rdf:RDF>
      <cc:Work
         rdf:about="">
        <dc:format>image/svg+xml</dc:format>
        <dc:type
           rdf:resource="http://purl.org/dc/dcmitype/StillImage" />
      </cc:Work>
    </rdf:RDF>
  </metadata>
  <g
     inkscape:label="Capa 1"
     inkscape:groupmode="layer"
     id="layer1"
     transform="translate(0,-287.47497)">
    <g
       id="g846"
       transform="matrix(5.1078951,0,0,5.1078951,-4.482597,-1185.4005)">
      <path
         style="fill:#818181;fill-opacity:1;stroke:none;stroke-width:0.0221452px;stroke-linecap:butt;stroke-linejoin:miter;stroke-opacity:1"
         d="m 1.8136547,292.06425 0.9083958,0.003 v 2.49753 l -0.9154315,-0.01 z"
         id="path4509"
         inkscape:connector-curvature="0"
         sodipodi:nodetypes="ccccc" />
      <path
         style="fill:#606060;fill-opacity:1;stroke:none;stroke-width:0.0221452px;stroke-linecap:butt;stroke-linejoin:miter;stroke-opacity:1"
         d="m 1.5526352,295.09382 c -0.00989,-0.30547 0.1203705,-0.37785 0.2537763,-0.37635 l 0.9764106,0.005 c 0.193183,0.003 0.2164042,0.23004 0.217838,0.36992 z"
         id="path4511"
         inkscape:connector-curvature="0"
         sodipodi:nodetypes="ccccc" />
      <path
         style="fill:#606060;fill-opacity:1;stroke:none;stroke-width:0.0221452px;stroke-linecap:butt;stroke-linejoin:miter;stroke-opacity:1"
         d="m 1.5379604,291.52984 c -0.00959,0.22755 0.066238,0.37368 0.2476361,0.38394 l 0.914053,0.002 c 0.1819348,-0.005 0.3032888,-0.0555 0.3010106,-0.39218 z"
         id="path4513"
         inkscape:connector-curvature="0"
         sodipodi:nodetypes="ccccc" />
      <path
         style="fill:#606060;fill-opacity:1;stroke:none;stroke-width:0.0221452px;stroke-linecap:butt;stroke-linejoin:miter;stroke-opacity:1"
         d="M 1.5319542,295.26103 C 1.3991318,295.26078 1.2781084,295.371 1.27866,295.4985 l 0.00528,0.35707 6.9705011,0.008 0.00249,-0.35323 c -0.00322,-0.21153 -0.2118604,-0.25327 -0.2830985,-0.25417 z"
         id="path4515"
         inkscape:connector-curvature="0"
         sodipodi:nodetypes="ccccccc" />
      <path
         style="fill:#818181;fill-opacity:1;stroke:none;stroke-width:0.0221452px;stroke-linecap:butt;stroke-linejoin:miter;stroke-opacity:1"
         d="m 4.4932107,288.7139 -3.0846051,2.13932 c -0.1754406,0.12117 -0.2423029,0.48694 0.034826,0.50249 l 6.5622481,0.005 c 0.4048636,-0.0489 0.2752247,-0.37276 0.059702,-0.52736 L 5.020578,288.71389 c -0.2159305,-0.1663 -0.3763088,-0.10245 -0.5273673,0 z"
         id="path4517"
         inkscape:connector-curvature="0"
         sodipodi:nodetypes="ccccccc" />
      <path
         style="fill:#818181;fill-opacity:1;stroke:none;stroke-width:0.0221452px;stroke-linecap:butt;stroke-linejoin:miter;stroke-opacity:1"
         d="m 4.2966112,292.05665 0.9083958,0.003 v 2.49754 l -0.9154315,-0.01 z"
         id="path4509-8"
         inkscape:connector-curvature="0"
         sodipodi:nodetypes="ccccc" />
      <path
         style="fill:#606060;fill-opacity:1;stroke:none;stroke-width:0.0221452px;stroke-linecap:butt;stroke-linejoin:miter;stroke-opacity:1"
         d="m 4.0355916,295.08623 c -0.00989,-0.30547 0.1203706,-0.37785 0.2537763,-0.37635 l 0.9764107,0.005 c 0.193183,0.003 0.2164042,0.23004 0.2178379,0.36992 z"
         id="path4511-9"
         inkscape:connector-curvature="0"
         sodipodi:nodetypes="ccccc" />
      <path
         style="fill:#606060;fill-opacity:1;stroke:none;stroke-width:0.0221452px;stroke-linecap:butt;stroke-linejoin:miter;stroke-opacity:1"
         d="m 4.0209168,291.52225 c -0.00959,0.22754 0.066238,0.37368 0.2476362,0.38394 l 0.914053,0.002 c 0.1819348,-0.005 0.3032888,-0.0555 0.3010105,-0.39219 z"
         id="path4513-5"
         inkscape:connector-curvature="0"
         sodipodi:nodetypes="ccccc" />
      <path
         style="fill:#818181;fill-opacity:1;stroke:none;stroke-width:0.0221452px;stroke-linecap:butt;stroke-linejoin:miter;stroke-opacity:1"
         d="m 6.8087239,292.06425 0.9083958,0.003 v 2.49754 l -0.9154314,-0.01 z"
         id="path4509-1"
         inkscape:connector-curvature="0"
         sodipodi:nodetypes="ccccc" />
      <path
         style="fill:#606060;fill-opacity:1;stroke:none;stroke-width:0.0221452px;stroke-linecap:butt;stroke-linejoin:miter;stroke-opacity:1"
         d="m 6.5477044,295.09383 c -0.00989,-0.30547 0.1203706,-0.37785 0.2537763,-0.37636 l 0.9764106,0.005 c 0.193183,0.003 0.2164042,0.23005 0.217838,0.36992 z"
         id="path4511-7"
         inkscape:connector-curvature="0"
         sodipodi:nodetypes="ccccc" />
      <path
         style="fill:#606060;fill-opacity:1;stroke:none;stroke-width:0.0221452px;stroke-linecap:butt;stroke-linejoin:miter;stroke-opacity:1"
         d="m 6.5330296,291.52985 c -0.00959,0.22754 0.066238,0.37367 0.2476362,0.38394 l 0.914053,0.002 c 0.1819347,-0.005 0.3032888,-0.0555 0.3010105,-0.39218 z"
         id="path4513-2"
         inkscape:connector-curvature="0"
         sodipodi:nodetypes="ccccc" />
      <path
         style="fill:#606060;fill-opacity:1;stroke:none;stroke-width:0.0146241px;stroke-linecap:butt;stroke-linejoin:miter;stroke-opacity:1"
         d="m 4.5846652,289.14601 -2.0369932,1.41275 c -0.1158567,0.08 -0.16001,0.32156 0.022999,0.33184 l 4.3335379,0.003 c 0.2673605,-0.0323 0.1817507,-0.24617 0.039425,-0.34826 l -2.0107086,-1.39961 c -0.142595,-0.10982 -0.248505,-0.0677 -0.3482599,0 z"
         id="path4517-0"
         inkscape:connector-curvature="0"
         sodipodi:nodetypes="ccccccc" />
    </g>
  </g>
</svg>
