<?xml version="1.0" encoding="UTF-8" standalone="no"?>
<!-- Created with Inkscape (http://www.inkscape.org/) -->

<svg
   width="150"
   height="150"
   viewBox="0 0 39.687499 39.687501"
   version="1.1"
   id="svg4514"
   inkscape:version="1.1.2 (b8e25be833, 2022-02-05)"
   sodipodi:docname="cash.svg"
   inkscape:export-filename="D:\Development\Homeasy\Homeasy\Homeasy\Assets\AccountImages\cash.png"
   inkscape:export-xdpi="400"
   inkscape:export-ydpi="400"
   xmlns:inkscape="http://www.inkscape.org/namespaces/inkscape"
   xmlns:sodipodi="http://sodipodi.sourceforge.net/DTD/sodipodi-0.dtd"
   xmlns="http://www.w3.org/2000/svg"
   xmlns:svg="http://www.w3.org/2000/svg"
   xmlns:rdf="http://www.w3.org/1999/02/22-rdf-syntax-ns#"
   xmlns:cc="http://creativecommons.org/ns#"
   xmlns:dc="http://purl.org/dc/elements/1.1/">
  <defs
     id="defs4508" />
  <sodipodi:namedview
     id="base"
     pagecolor="#ffffff"
     bordercolor="#666666"
     borderopacity="1.0"
     inkscape:pageopacity="0.0"
     inkscape:pageshadow="2"
     inkscape:zoom="6.9023377"
     inkscape:cx="9.9966132"
     inkscape:cy="23.470309"
     inkscape:document-units="mm"
     inkscape:current-layer="layer1"
     showgrid="false"
     units="px"
     inkscape:pagecheckerboard="true"
     inkscape:window-width="3840"
     inkscape:window-height="2054"
     inkscape:window-x="-11"
     inkscape:window-y="-11"
     inkscape:window-maximized="1" />
  <metadata
     id="metadata4511">
    <rdf:RDF>
      <cc:Work
         rdf:about="">
        <dc:format>image/svg+xml</dc:format>
        <dc:type
           rdf:resource="http://purl.org/dc/dcmitype/StillImage" />
      </cc:Work>
    </rdf:RDF>
  </metadata>
  <g
     inkscape:label="Capa 1"
     inkscape:groupmode="layer"
     id="layer1"
     transform="translate(0,-287.47497)">
    <g
       id="g5320"
       transform="matrix(4.3720582,0,0,4.3720582,-2.0010031,-970.31884)">
      <path
         sodipodi:nodetypes="ccccccc"
         inkscape:connector-curvature="0"
         id="path5245"
         d="m 8.7100232,289.90083 0.00849,-0.35242 c 0.00223,-0.21672 -0.2663076,-0.4717 -0.6785746,-0.48055 l -6.7948956,-0.0108 c -0.33722726,0.0352 -0.45612287,0.0808 -0.48075172,0.25061 l -3.1e-7,0.76214 z"
         style="fill:#7e4f2f;fill-opacity:1;stroke:none;stroke-width:0.0393161px;stroke-linecap:butt;stroke-linejoin:miter;stroke-opacity:1" />
      <path
         sodipodi:nodetypes="cccccccccc"
         inkscape:connector-curvature="0"
         id="path5213"
         d="m 1.3450482,295.64308 h 7.0218159 c 0.4306685,0.006 0.6135587,-0.46592 0.6352216,-0.831 l -0.00128,-4.1886 c 0.00815,-0.22851 -0.3082508,-0.54051 -0.6108399,-0.55957 l -7.0398198,-0.002 c -0.2360506,0.004 -0.51076059,-0.24417 -0.5851779,-0.42969 l 0.005255,5.18147 c 0.022558,0.68734 0.4520823,0.8432 0.5748251,0.82964 z"
         style="fill:#b9703d;fill-opacity:1;stroke:none;stroke-width:0.0393161px;stroke-linecap:butt;stroke-linejoin:miter;stroke-opacity:1" />
      <path
         sodipodi:nodetypes="ccccccc"
         inkscape:connector-curvature="0"
         id="path5213-7"
         d="m 0.76026427,294.74491 c 0.025195,0.54294 0.23555948,0.90134 0.59410023,0.90087 h 7.0218162 c 0.4264584,-10e-4 0.6027917,-0.42041 0.6025866,-0.84572 -0.082485,0.26434 -0.2349134,0.5432 -0.5546202,0.56075 H 1.2949535 c -0.3158522,-0.0429 -0.43741132,-0.26432 -0.53468923,-0.6159 z"
         style="fill:#965f38;fill-opacity:1;stroke:none;stroke-width:0.0393161px;stroke-linecap:butt;stroke-linejoin:miter;stroke-opacity:1" />
      <path
         sodipodi:nodetypes="cccccscc"
         inkscape:connector-curvature="0"
         id="path5213-6"
         d="m 8.3905859,289.77996 c 0.3326038,0.0193 0.6174755,0.37745 0.6102151,0.84352 0.00815,-0.22851 -0.3082511,-0.54051 -0.6108402,-0.55957 l -7.0398198,-0.002 c -0.2360506,0.004 -0.51076058,-0.24417 -0.58517789,-0.42969 0.008467,-0.16092 0.005468,-0.15154 0.004055,-0.28533 -0.001284,-0.11788 0.0292315,0.42809 0.67204139,0.43331 z"
         style="fill:#c8885a;fill-opacity:1;stroke:none;stroke-width:0.0393161px;stroke-linecap:butt;stroke-linejoin:miter;stroke-opacity:1" />
      <path
         sodipodi:nodetypes="cccc"
         inkscape:connector-curvature="0"
         id="path5268"
         d="m 1.5687419,289.77593 5.6972315,-0.96583 0.5153509,0.96583 z"
         style="fill:#5abeac;fill-opacity:1;stroke:none;stroke-width:0.0393161px;stroke-linecap:butt;stroke-linejoin:miter;stroke-opacity:1" />
      <path
         sodipodi:nodetypes="ccccc"
         inkscape:connector-curvature="0"
         id="path5270"
         d="m 7.4072305,289.06808 0.5342861,-0.16852 0.3004044,0.88469 -0.466598,-0.008 z"
         style="fill:#3db39e;fill-opacity:1;stroke:none;stroke-width:0.0393161px;stroke-linecap:butt;stroke-linejoin:miter;stroke-opacity:1" />
      <path
         sodipodi:nodetypes="ccccccccc"
         inkscape:connector-curvature="0"
         id="path5272"
         d="m 9.2283808,292.11971 c -0.016063,-0.21398 -0.142266,-0.25895 -0.2928062,-0.26658 l -1.166981,0.005 c -0.236498,-0.008 -0.7797469,0.46677 -0.7680856,0.85491 l -0.00424,0.37689 c 0.051754,0.3565 0.4311328,0.75893 0.8147649,0.75839 h 1.137276 c 0.221972,-0.002 0.2681672,-0.12289 0.284319,-0.2482 z"
         style="fill:#a86a3f;fill-opacity:1;stroke:none;stroke-width:0.0393161px;stroke-linecap:butt;stroke-linejoin:miter;stroke-opacity:1" />
      <path
         sodipodi:nodetypes="ccc"
         inkscape:connector-curvature="0"
         id="path5274"
         d="m 7.9340927,292.27598 c 0.6661253,0.005 0.6573753,1.16106 -0.021218,1.16287 -0.6619251,0.008 -0.7293535,-1.15151 0.021218,-1.16287 z"
         style="fill:#999999;fill-opacity:1;stroke:none;stroke-width:0.0393161px;stroke-linecap:butt;stroke-linejoin:miter;stroke-opacity:1" />
      <path
         sodipodi:nodetypes="cccc"
         inkscape:connector-curvature="0"
         id="path5274-8"
         d="m 7.9340927,292.27598 c 0.475448,0.003 0.6070867,0.59347 0.3967456,0.93162 -0.4119036,0.34713 -1.0237057,-0.19941 -0.7529386,-0.80358 0.086669,-0.0767 0.2047887,-0.12574 0.356193,-0.12804 z"
         style="fill:#cccccc;fill-opacity:1;stroke:none;stroke-width:0.0393161px;stroke-linecap:butt;stroke-linejoin:miter;stroke-opacity:1" />
    </g>
  </g>
</svg>
